<svg xmlns="http://www.w3.org/2000/svg" xmlns:xlink="http://www.w3.org/1999/xlink" width="2130" height="1107.21"><rect width="2130" height="1107.21" rx="0" ry="0" class="a"/><svg height="1107.21" viewBox="0 0 213 110.721" width="2130" xmlns="http://www.w3.org/2000/svg" xmlns:xlink="http://www.w3.org/1999/xlink"><style>@keyframes p{0%{transform:translateX(0)}1.59%{transform:translateX(-213px)}1.98%{transform:translateX(-639px)}1.99%{transform:translateX(-852px)}2%{transform:translateX(-1065px)}6.01%{transform:translateX(-1278px)}6.45%{transform:translateX(-1491px)}7.06%{transform:translateX(-1704px)}8.58%{transform:translateX(-1917px)}9.58%{transform:translateX(-2130px)}9.63%{transform:translateX(-2343px)}9.74%{transform:translateX(-2556px)}9.82%{transform:translateX(-2769px)}10.19%{transform:translateX(-3195px)}10.2%{transform:translateX(-3621px)}26.62%{transform:translateX(-3834px)}27.3%{transform:translateX(-4047px)}28.37%{transform:translateX(-4260px)}29.4%{transform:translateX(-4473px)}30.03%{transform:translateX(-4686px)}30.99%{transform:translateX(-4899px)}35.27%{transform:translateX(-5112px)}35.39%{transform:translateX(-5325px)}35.55%{transform:translateX(-5538px)}35.64%{transform:translateX(-5751px)}35.86%{transform:translateX(-6177px)}35.87%{transform:translateX(-6390px)}35.88%{transform:translateX(-6603px)}43.71%{transform:translateX(-6816px)}45.06%{transform:translateX(-7029px)}46%{transform:translateX(-7242px)}47.84%{transform:translateX(-7455px)}53.82%{transform:translateX(-7668px)}53.89%{transform:translateX(-7881px)}54.01%{transform:translateX(-8094px)}54.11%{transform:translateX(-8307px)}54.37%{transform:translateX(-8733px)}54.38%{transform:translateX(-8946px)}54.39%{transform:translateX(-9159px)}61.94%{transform:translateX(-9372px)}62.73%{transform:translateX(-9585px)}63.97%{transform:translateX(-9798px)}68.12%{transform:translateX(-10011px)}68.2%{transform:translateX(-10224px)}68.32%{transform:translateX(-10437px)}68.35%{transform:translateX(-10650px)}68.62%{transform:translateX(-11076px)}68.63%{transform:translateX(-11502px)}84.94%{transform:translateX(-11715px)}87.74%{transform:translateX(-11928px)}87.81%{transform:translateX(-12141px)}87.93%{transform:translateX(-12354px)}87.96%{transform:translateX(-12567px)}88.21%{transform:translateX(-12993px)}88.22%{transform:translateX(-13206px)}88.23%{transform:translateX(-13419px)}89.15%{transform:translateX(-13845px)}to{transform:translateX(-14058px)}}.a{fill:#282d35}.c{fill:#d7005f}.d{fill:#af5fff}.e{fill:#b9c0cb}.f{fill:#d75f00}.g{fill:#87ff00}.h{fill:#5fd7ff}.i{fill:#a8cc8c}.j{fill:#dbab79}.k,.l{fill:#b9c0cb}.k{text-decoration:underline}.l{font-weight:700}.m{fill:#e88388}.r{fill:#6f7783}.s{fill:#e88388;font-weight:700}</style><g font-size="1.67" font-family="Monaco,Consolas,Menlo,'Bitstream Vera Sans Mono','Powerline Symbols',monospace"><defs><symbol id="1"><text y="1.67" class="c">[16:09:01]</text><text x="11.022" y="1.67" class="d">root</text><text x="16.032" y="1.67" class="e">at</text><text x="19.038" y="1.67" class="f">hp-spectre-13-af001nn</text><text x="41.082" y="1.67" class="e">in</text><text x="44.088" y="1.67" class="g">~</text><text x="46.092" y="1.67" class="e">(</text><text x="47.094" y="1.67" class="h">master</text><text x="53.106" y="1.67" class="e">)</text></symbol><symbol id="2"><text y="1.67" class="e">$</text></symbol><symbol id="3"><text y="1.67" class="e">$</text><text x="2.004" y="1.67" class="i">mkfifo</text><text x="9.018" y="1.67" class="e">/tmp/pipe</text></symbol><symbol id="4"><text y="1.67" class="c">[16:09:02]</text><text x="11.022" y="1.67" class="d">root</text><text x="16.032" y="1.67" class="e">at</text><text x="19.038" y="1.67" class="f">hp-spectre-13-af001nn</text><text x="41.082" y="1.67" class="e">in</text><text x="44.088" y="1.67" class="g">~</text><text x="46.092" y="1.67" class="e">(</text><text x="47.094" y="1.67" class="h">master</text><text x="53.106" y="1.67" class="e">)</text></symbol><symbol id="5"><text y="1.67" class="e">$</text><text x="2.004" y="1.67" class="j">while</text><text x="8.016" y="1.67" class="i">true</text><text x="12.024" y="1.67" class="e">;</text><text x="14.028" y="1.67" class="j">do</text><text x="17.034" y="1.67" class="i">sleep</text><text x="23.046" y="1.67" class="e">1s;</text><text x="27.054" y="1.67" class="j">done</text><text x="32.064" y="1.67" class="e">&gt;</text><text x="34.068" y="1.67" class="k">/tmp/pipe</text><text x="44.088" y="1.67" class="e">&amp;</text><text x="46.092" y="1.67" class="l">#</text><text x="48.096" y="1.67" class="l">keep</text><text x="53.106" y="1.67" class="l">the</text><text x="57.114" y="1.67" class="l">pipe</text><text x="62.124" y="1.67" class="l">open</text></symbol><symbol id="6"><text y="1.67" class="c">[16:09:07]</text><text x="11.022" y="1.67" class="d">root</text><text x="16.032" y="1.67" class="e">at</text><text x="19.038" y="1.67" class="f">hp-spectre-13-af001nn</text><text x="41.082" y="1.67" class="e">in</text><text x="44.088" y="1.67" class="g">~</text><text x="46.092" y="1.67" class="e">(</text><text x="47.094" y="1.67" class="h">master</text><text x="53.106" y="1.67" class="e">)</text></symbol><symbol id="7"><text y="1.67" class="e">[1]</text><text x="4.008" y="1.67" class="e">17541</text></symbol><symbol id="8"><text y="1.67" class="e">$</text><text x="2.004" y="1.67" class="i">/opt/Netopeer2/bin/netopeer2-cli</text><text x="35.07" y="1.67" class="e">&lt;</text><text x="37.074" y="1.67" class="k">/tmp/pipe</text><text x="47.094" y="1.67" class="e">&amp;</text></symbol><symbol id="9"><text y="1.67" class="c">[16:09:10]</text><text x="11.022" y="1.67" class="d">root</text><text x="16.032" y="1.67" class="e">at</text><text x="19.038" y="1.67" class="f">hp-spectre-13-af001nn</text><text x="41.082" y="1.67" class="e">in</text><text x="44.088" y="1.67" class="g">~</text><text x="46.092" y="1.67" class="e">(</text><text x="47.094" y="1.67" class="h">master</text><text x="53.106" y="1.67" class="e">)</text></symbol><symbol id="10"><text y="1.67" class="e">[2]</text><text x="4.008" y="1.67" class="e">17612</text></symbol><symbol id="11"><text y="1.67" class="e">$</text><text x="2.004" y="1.67" class="i">echo</text><text x="7.014" y="1.67" class="j">&apos;connect&apos;</text><text x="17.034" y="1.67" class="e">&gt;</text><text x="19.038" y="1.67" class="k">/tmp/pipe</text></symbol><symbol id="12"><text y="1.67" class="c">[16:09:12]</text><text x="11.022" y="1.67" class="d">root</text><text x="16.032" y="1.67" class="e">at</text><text x="19.038" y="1.67" class="f">hp-spectre-13-af001nn</text><text x="41.082" y="1.67" class="e">in</text><text x="44.088" y="1.67" class="g">~</text><text x="46.092" y="1.67" class="e">(</text><text x="47.094" y="1.67" class="h">master</text><text x="53.106" y="1.67" class="e">)</text></symbol><symbol id="13"><text y="1.67" class="c">[16:09:13]</text><text x="11.022" y="1.67" class="d">root</text><text x="16.032" y="1.67" class="e">at</text><text x="19.038" y="1.67" class="f">hp-spectre-13-af001nn</text><text x="41.082" y="1.67" class="e">in</text><text x="44.088" y="1.67" class="g">~</text><text x="46.092" y="1.67" class="e">(</text><text x="47.094" y="1.67" class="h">master</text><text x="53.106" y="1.67" class="e">)</text></symbol><symbol id="14"><text y="1.67" class="c">[16:09:16]</text><text x="11.022" y="1.67" class="d">root</text><text x="16.032" y="1.67" class="e">at</text><text x="19.038" y="1.67" class="f">hp-spectre-13-af001nn</text><text x="41.082" y="1.67" class="e">in</text><text x="44.088" y="1.67" class="g">~</text><text x="46.092" y="1.67" class="e">(</text><text x="47.094" y="1.67" class="h">master</text><text x="53.106" y="1.67" class="e">)</text></symbol><symbol id="15"><text y="1.67" class="m">cmd_connect:</text><text x="13.026" y="1.67" class="m">Already</text><text x="21.042" y="1.67" class="m">connected</text><text x="31.062" y="1.67" class="m">to</text><text x="34.068" y="1.67" class="m">127.0.0.1.</text></symbol><symbol id="16"><text y="1.67" class="e">[2]</text><text x="5.01" y="1.67" class="e">+</text><text x="7.014" y="1.67" class="e">17612</text><text x="13.026" y="1.67" class="e">segmentation</text><text x="26.052" y="1.67" class="e">fault</text><text x="32.064" y="1.67" class="e">(core</text><text x="38.076" y="1.67" class="e">dumped)</text><text x="47.094" y="1.67" class="e">/opt/Netopeer2/bin/netopeer2-cli</text><text x="80.16" y="1.67" class="e">&lt;</text><text x="82.164" y="1.67" class="e">/tmp/pipe</text></symbol><symbol id="a"><path fill="transparent" d="M0 0h213v51H0z"/></symbol><symbol id="b"><path fill="#6f7683" d="M0 0h1.102v2.171H0z"/></symbol></defs><path class="a" d="M0 0h213v110.721H0z"/><g style="animation-duration:17.494358s;animation-iteration-count:infinite;animation-name:p;animation-timing-function:steps(1,end)"><svg width="14271"><svg><use xlink:href="#a"/><use xlink:href="#b" x="-.004"/></svg><svg x="213"><use xlink:href="#a"/><use xlink:href="#b" x="-.004"/></svg><svg x="426"><use xlink:href="#a"/><use xlink:href="#b" x=".996" y="4.317"/><use xlink:href="#1" y="2.171"/></svg><svg x="639"><use xlink:href="#a"/><use xlink:href="#b" x=".996" y="4.317"/><use xlink:href="#1" y="2.171"/></svg><svg x="852"><use xlink:href="#a"/><use xlink:href="#b" x="1.996" y="4.317"/><use xlink:href="#1" y="2.171"/><use xlink:href="#2" y="4.342"/></svg><svg x="1065"><use xlink:href="#a"/><use xlink:href="#b" x="1.996" y="4.317"/><use xlink:href="#1" y="2.171"/><use xlink:href="#2" y="4.342"/></svg><svg x="1278"><use xlink:href="#a"/><use xlink:href="#b" x="2.996" y="4.317"/><use xlink:href="#1" y="2.171"/><text y="6.012" class="e">$</text><text x="2.004" y="6.012" class="k">m</text><text x="3.006" y="6.012" class="r">kfifo</text><text x="9.018" y="6.012" class="r">/tmp/pipe</text></svg><svg x="1491"><use xlink:href="#a"/><use xlink:href="#b" x="3.996" y="4.317"/><use xlink:href="#1" y="2.171"/><text y="6.012" class="e">$</text><text x="2.004" y="6.012" class="s">mk</text><text x="4.008" y="6.012" class="r">fifo</text><text x="9.018" y="6.012" class="r">/tmp/pipe</text></svg><svg x="1704"><use xlink:href="#a"/><use xlink:href="#b" x="4.996" y="4.317"/><use xlink:href="#1" y="2.171"/><text y="6.012" class="e">$</text><text x="2.004" y="6.012" class="s">mkf</text><text x="5.01" y="6.012" class="r">ifo</text><text x="9.018" y="6.012" class="r">/tmp/pipe</text></svg><svg x="1917"><use xlink:href="#a"/><use xlink:href="#b" x="17.996" y="4.317"/><use xlink:href="#1" y="2.171"/><use xlink:href="#3" y="4.342"/></svg><svg x="2130"><use xlink:href="#a"/><use xlink:href="#b" x="17.996" y="4.317"/><use xlink:href="#1" y="2.171"/><use xlink:href="#3" y="4.342"/></svg><svg x="2343"><use xlink:href="#a"/><use xlink:href="#b" x="17.996" y="4.317"/><use xlink:href="#4" y="2.171"/><use xlink:href="#3" y="4.342"/></svg><svg x="2556"><use xlink:href="#a"/><use xlink:href="#b" x="-.004" y="6.488"/><use xlink:href="#4" y="2.171"/><use xlink:href="#3" y="4.342"/></svg><svg x="2769"><use xlink:href="#a"/><use xlink:href="#b" x="-.004" y="6.488"/><use xlink:href="#4" y="2.171"/><use xlink:href="#3" y="4.342"/></svg><svg x="2982"><use xlink:href="#a"/><use xlink:href="#b" x="1.996" y="10.83"/><use xlink:href="#4" y="2.171"/><use xlink:href="#3" y="4.342"/><use xlink:href="#4" y="8.684"/><use xlink:href="#2" y="10.855"/></svg><svg x="3195"><use xlink:href="#a"/><use xlink:href="#b" x="1.996" y="10.83"/><use xlink:href="#4" y="2.171"/><use xlink:href="#3" y="4.342"/><use xlink:href="#4" y="8.684"/><use xlink:href="#2" y="10.855"/></svg><svg x="3408"><use xlink:href="#a"/><use xlink:href="#b" x="1.996" y="10.83"/><use xlink:href="#4" y="2.171"/><use xlink:href="#3" y="4.342"/><use xlink:href="#4" y="8.684"/><use xlink:href="#2" y="10.855"/></svg><svg x="3621"><use xlink:href="#a"/><use xlink:href="#b" x="1.996" y="10.83"/><use xlink:href="#4" y="2.171"/><use xlink:href="#3" y="4.342"/><use xlink:href="#4" y="8.684"/><use xlink:href="#2" y="10.855"/></svg><svg x="3834"><use xlink:href="#a"/><use xlink:href="#b" x="2.996" y="10.83"/><use xlink:href="#4" y="2.171"/><use xlink:href="#3" y="4.342"/><use xlink:href="#4" y="8.684"/><text y="12.525" class="e">$</text><text x="2.004" y="12.525" class="i">w</text><text x="3.006" y="12.525" class="r">hile</text><text x="8.016" y="12.525" class="r">true;</text><text x="14.028" y="12.525" class="r">do</text><text x="17.034" y="12.525" class="r">sleep</text><text x="23.046" y="12.525" class="r">1s;</text><text x="27.054" y="12.525" class="r">done</text><text x="32.064" y="12.525" class="r">&gt;</text><text x="34.068" y="12.525" class="r">/tmp/pipe</text><text x="44.088" y="12.525" class="r">&amp;</text><text x="46.092" y="12.525" class="r">#</text><text x="48.096" y="12.525" class="r">keep</text><text x="53.106" y="12.525" class="r">the</text><text x="57.114" y="12.525" class="r">pipe</text><text x="62.124" y="12.525" class="r">open</text></svg><svg x="4047"><use xlink:href="#a"/><use xlink:href="#b" x="3.996" y="10.83"/><use xlink:href="#4" y="2.171"/><use xlink:href="#3" y="4.342"/><use xlink:href="#4" y="8.684"/><text y="12.525" class="e">$</text><text x="2.004" y="12.525" class="s">wh</text><text x="4.008" y="12.525" class="r">ile</text><text x="8.016" y="12.525" class="r">true;</text><text x="14.028" y="12.525" class="r">do</text><text x="17.034" y="12.525" class="r">sleep</text><text x="23.046" y="12.525" class="r">1s;</text><text x="27.054" y="12.525" class="r">done</text><text x="32.064" y="12.525" class="r">&gt;</text><text x="34.068" y="12.525" class="r">/tmp/pipe</text><text x="44.088" y="12.525" class="r">&amp;</text><text x="46.092" y="12.525" class="r">#</text><text x="48.096" y="12.525" class="r">keep</text><text x="53.106" y="12.525" class="r">the</text><text x="57.114" y="12.525" class="r">pipe</text><text x="62.124" y="12.525" class="r">open</text></svg><svg x="4260"><use xlink:href="#a"/><use xlink:href="#b" x="4.996" y="10.83"/><use xlink:href="#4" y="2.171"/><use xlink:href="#3" y="4.342"/><use xlink:href="#4" y="8.684"/><text y="12.525" class="e">$</text><text x="2.004" y="12.525" class="s">whi</text><text x="5.01" y="12.525" class="r">le</text><text x="8.016" y="12.525" class="r">true;</text><text x="14.028" y="12.525" class="r">do</text><text x="17.034" y="12.525" class="r">sleep</text><text x="23.046" y="12.525" class="r">1s;</text><text x="27.054" y="12.525" class="r">done</text><text x="32.064" y="12.525" class="r">&gt;</text><text x="34.068" y="12.525" class="r">/tmp/pipe</text><text x="44.088" y="12.525" class="r">&amp;</text><text x="46.092" y="12.525" class="r">#</text><text x="48.096" y="12.525" class="r">keep</text><text x="53.106" y="12.525" class="r">the</text><text x="57.114" y="12.525" class="r">pipe</text><text x="62.124" y="12.525" class="r">open</text></svg><svg x="4473"><use xlink:href="#a"/><use xlink:href="#b" x="5.996" y="10.83"/><use xlink:href="#4" y="2.171"/><use xlink:href="#3" y="4.342"/><use xlink:href="#4" y="8.684"/><text y="12.525" class="e">$</text><text x="2.004" y="12.525" class="s">whil</text><text x="6.012" y="12.525" class="r">e</text><text x="8.016" y="12.525" class="r">true;</text><text x="14.028" y="12.525" class="r">do</text><text x="17.034" y="12.525" class="r">sleep</text><text x="23.046" y="12.525" class="r">1s;</text><text x="27.054" y="12.525" class="r">done</text><text x="32.064" y="12.525" class="r">&gt;</text><text x="34.068" y="12.525" class="r">/tmp/pipe</text><text x="44.088" y="12.525" class="r">&amp;</text><text x="46.092" y="12.525" class="r">#</text><text x="48.096" y="12.525" class="r">keep</text><text x="53.106" y="12.525" class="r">the</text><text x="57.114" y="12.525" class="r">pipe</text><text x="62.124" y="12.525" class="r">open</text></svg><svg x="4686"><use xlink:href="#a"/><use xlink:href="#b" x="6.996" y="10.83"/><use xlink:href="#4" y="2.171"/><use xlink:href="#3" y="4.342"/><use xlink:href="#4" y="8.684"/><text y="12.525" class="e">$</text><text x="2.004" y="12.525" class="j">while</text><text x="8.016" y="12.525" class="r">true;</text><text x="14.028" y="12.525" class="r">do</text><text x="17.034" y="12.525" class="r">sleep</text><text x="23.046" y="12.525" class="r">1s;</text><text x="27.054" y="12.525" class="r">done</text><text x="32.064" y="12.525" class="r">&gt;</text><text x="34.068" y="12.525" class="r">/tmp/pipe</text><text x="44.088" y="12.525" class="r">&amp;</text><text x="46.092" y="12.525" class="r">#</text><text x="48.096" y="12.525" class="r">keep</text><text x="53.106" y="12.525" class="r">the</text><text x="57.114" y="12.525" class="r">pipe</text><text x="62.124" y="12.525" class="r">open</text></svg><svg x="4899"><use xlink:href="#a"/><use xlink:href="#b" x="65.996" y="10.83"/><use xlink:href="#4" y="2.171"/><use xlink:href="#3" y="4.342"/><use xlink:href="#4" y="8.684"/><use xlink:href="#5" y="10.855"/></svg><svg x="5112"><use xlink:href="#a"/><use xlink:href="#b" x="65.996" y="10.83"/><use xlink:href="#4" y="2.171"/><use xlink:href="#3" y="4.342"/><use xlink:href="#4" y="8.684"/><use xlink:href="#5" y="10.855"/></svg><svg x="5325"><use xlink:href="#a"/><use xlink:href="#b" x="65.996" y="10.83"/><use xlink:href="#4" y="2.171"/><use xlink:href="#3" y="4.342"/><use xlink:href="#6" y="8.684"/><use xlink:href="#5" y="10.855"/></svg><svg x="5538"><use xlink:href="#a"/><use xlink:href="#b" x="-.004" y="13.001"/><use xlink:href="#4" y="2.171"/><use xlink:href="#3" y="4.342"/><use xlink:href="#6" y="8.684"/><use xlink:href="#5" y="10.855"/></svg><svg x="5751"><use xlink:href="#a"/><use xlink:href="#b" x="-.004" y="15.172"/><use xlink:href="#4" y="2.171"/><use xlink:href="#3" y="4.342"/><use xlink:href="#6" y="8.684"/><use xlink:href="#5" y="10.855"/><use xlink:href="#7" y="13.026"/></svg><svg x="5964"><use xlink:href="#a"/><use xlink:href="#b" x="1.996" y="19.514"/><use xlink:href="#4" y="2.171"/><use xlink:href="#3" y="4.342"/><use xlink:href="#6" y="8.684"/><use xlink:href="#5" y="10.855"/><use xlink:href="#7" y="13.026"/><use xlink:href="#6" y="17.368"/><use xlink:href="#2" y="19.539"/></svg><svg x="6177"><use xlink:href="#a"/><use xlink:href="#b" x="1.996" y="19.514"/><use xlink:href="#4" y="2.171"/><use xlink:href="#3" y="4.342"/><use xlink:href="#6" y="8.684"/><use xlink:href="#5" y="10.855"/><use xlink:href="#7" y="13.026"/><use xlink:href="#6" y="17.368"/><use xlink:href="#2" y="19.539"/></svg><svg x="6390"><use xlink:href="#a"/><use xlink:href="#b" x="1.996" y="19.514"/><use xlink:href="#4" y="2.171"/><use xlink:href="#3" y="4.342"/><use xlink:href="#6" y="8.684"/><use xlink:href="#5" y="10.855"/><use xlink:href="#7" y="13.026"/><use xlink:href="#6" y="17.368"/><use xlink:href="#2" y="19.539"/></svg><svg x="6603"><use xlink:href="#a"/><use xlink:href="#b" x="1.996" y="19.514"/><use xlink:href="#4" y="2.171"/><use xlink:href="#3" y="4.342"/><use xlink:href="#6" y="8.684"/><use xlink:href="#5" y="10.855"/><use xlink:href="#7" y="13.026"/><use xlink:href="#6" y="17.368"/><use xlink:href="#2" y="19.539"/></svg><svg x="6816"><use xlink:href="#a"/><use xlink:href="#b" x="2.996" y="19.514"/><use xlink:href="#4" y="2.171"/><use xlink:href="#3" y="4.342"/><use xlink:href="#6" y="8.684"/><use xlink:href="#5" y="10.855"/><use xlink:href="#7" y="13.026"/><use xlink:href="#6" y="17.368"/><text y="21.209" class="e">$</text><text x="2.004" y="21.209" class="k">/</text><text x="3.006" y="21.209" class="r">opt/Netopeer2/bin/netopeer2-cli</text><text x="35.07" y="21.209" class="r">&lt;</text><text x="37.074" y="21.209" class="r">/tmp/pipe</text><text x="47.094" y="21.209" class="r">&amp;</text></svg><svg x="7029"><use xlink:href="#a"/><use xlink:href="#b" x="3.996" y="19.514"/><use xlink:href="#4" y="2.171"/><use xlink:href="#3" y="4.342"/><use xlink:href="#6" y="8.684"/><use xlink:href="#5" y="10.855"/><use xlink:href="#7" y="13.026"/><use xlink:href="#6" y="17.368"/><text y="21.209" class="e">$</text><text x="2.004" y="21.209" class="k">/o</text><text x="4.008" y="21.209" class="r">pt/Netopeer2/bin/netopeer2-cli</text><text x="35.07" y="21.209" class="r">&lt;</text><text x="37.074" y="21.209" class="r">/tmp/pipe</text><text x="47.094" y="21.209" class="r">&amp;</text></svg><svg x="7242"><use xlink:href="#a"/><use xlink:href="#b" x="4.996" y="19.514"/><use xlink:href="#4" y="2.171"/><use xlink:href="#3" y="4.342"/><use xlink:href="#6" y="8.684"/><use xlink:href="#5" y="10.855"/><use xlink:href="#7" y="13.026"/><use xlink:href="#6" y="17.368"/><text y="21.209" class="e">$</text><text x="2.004" y="21.209" class="k">/op</text><text x="5.01" y="21.209" class="r">t/Netopeer2/bin/netopeer2-cli</text><text x="35.07" y="21.209" class="r">&lt;</text><text x="37.074" y="21.209" class="r">/tmp/pipe</text><text x="47.094" y="21.209" class="r">&amp;</text></svg><svg x="7455"><use xlink:href="#a"/><use xlink:href="#b" x="47.996" y="19.514"/><use xlink:href="#4" y="2.171"/><use xlink:href="#3" y="4.342"/><use xlink:href="#6" y="8.684"/><use xlink:href="#5" y="10.855"/><use xlink:href="#7" y="13.026"/><use xlink:href="#6" y="17.368"/><use xlink:href="#8" y="19.539"/></svg><svg x="7668"><use xlink:href="#a"/><use xlink:href="#b" x="47.996" y="19.514"/><use xlink:href="#4" y="2.171"/><use xlink:href="#3" y="4.342"/><use xlink:href="#6" y="8.684"/><use xlink:href="#5" y="10.855"/><use xlink:href="#7" y="13.026"/><use xlink:href="#6" y="17.368"/><use xlink:href="#8" y="19.539"/></svg><svg x="7881"><use xlink:href="#a"/><use xlink:href="#b" x="47.996" y="19.514"/><use xlink:href="#4" y="2.171"/><use xlink:href="#3" y="4.342"/><use xlink:href="#6" y="8.684"/><use xlink:href="#5" y="10.855"/><use xlink:href="#7" y="13.026"/><use xlink:href="#9" y="17.368"/><use xlink:href="#8" y="19.539"/></svg><svg x="8094"><use xlink:href="#a"/><use xlink:href="#b" x="-.004" y="21.685"/><use xlink:href="#4" y="2.171"/><use xlink:href="#3" y="4.342"/><use xlink:href="#6" y="8.684"/><use xlink:href="#5" y="10.855"/><use xlink:href="#7" y="13.026"/><use xlink:href="#9" y="17.368"/><use xlink:href="#8" y="19.539"/></svg><svg x="8307"><use xlink:href="#a"/><use xlink:href="#b" x="-.004" y="23.856"/><use xlink:href="#4" y="2.171"/><use xlink:href="#3" y="4.342"/><use xlink:href="#6" y="8.684"/><use xlink:href="#5" y="10.855"/><use xlink:href="#7" y="13.026"/><use xlink:href="#9" y="17.368"/><use xlink:href="#8" y="19.539"/><use xlink:href="#10" y="21.71"/></svg><svg x="8520"><use xlink:href="#a"/><use xlink:href="#b" x="1.996" y="28.198"/><use xlink:href="#4" y="2.171"/><use xlink:href="#3" y="4.342"/><use xlink:href="#6" y="8.684"/><use xlink:href="#5" y="10.855"/><use xlink:href="#7" y="13.026"/><use xlink:href="#9" y="17.368"/><use xlink:href="#8" y="19.539"/><use xlink:href="#10" y="21.71"/><use xlink:href="#9" y="26.052"/><use xlink:href="#2" y="28.223"/></svg><svg x="8733"><use xlink:href="#a"/><use xlink:href="#b" x="1.996" y="28.198"/><use xlink:href="#4" y="2.171"/><use xlink:href="#3" y="4.342"/><use xlink:href="#6" y="8.684"/><use xlink:href="#5" y="10.855"/><use xlink:href="#7" y="13.026"/><use xlink:href="#9" y="17.368"/><use xlink:href="#8" y="19.539"/><use xlink:href="#10" y="21.71"/><use xlink:href="#9" y="26.052"/><use xlink:href="#2" y="28.223"/></svg><svg x="8946"><use xlink:href="#a"/><use xlink:href="#b" x="1.996" y="28.198"/><use xlink:href="#4" y="2.171"/><use xlink:href="#3" y="4.342"/><use xlink:href="#6" y="8.684"/><use xlink:href="#5" y="10.855"/><use xlink:href="#7" y="13.026"/><use xlink:href="#9" y="17.368"/><use xlink:href="#8" y="19.539"/><use xlink:href="#10" y="21.71"/><use xlink:href="#9" y="26.052"/><use xlink:href="#2" y="28.223"/></svg><svg x="9159"><use xlink:href="#a"/><use xlink:href="#b" x="1.996" y="28.198"/><use xlink:href="#4" y="2.171"/><use xlink:href="#3" y="4.342"/><use xlink:href="#6" y="8.684"/><use xlink:href="#5" y="10.855"/><use xlink:href="#7" y="13.026"/><use xlink:href="#9" y="17.368"/><use xlink:href="#8" y="19.539"/><use xlink:href="#10" y="21.71"/><use xlink:href="#9" y="26.052"/><use xlink:href="#2" y="28.223"/></svg><svg x="9372"><use xlink:href="#a"/><use xlink:href="#b" x="2.996" y="28.198"/><use xlink:href="#4" y="2.171"/><use xlink:href="#3" y="4.342"/><use xlink:href="#6" y="8.684"/><use xlink:href="#5" y="10.855"/><use xlink:href="#7" y="13.026"/><use xlink:href="#9" y="17.368"/><use xlink:href="#8" y="19.539"/><use xlink:href="#10" y="21.71"/><use xlink:href="#9" y="26.052"/><text y="29.893" class="e">$</text><text x="2.004" y="29.893" class="s">e</text><text x="3.006" y="29.893" class="r">cho</text><text x="7.014" y="29.893" class="r">&apos;connect&apos;</text><text x="17.034" y="29.893" class="r">&gt;</text><text x="19.038" y="29.893" class="r">/tmp/pipe</text></svg><svg x="9585"><use xlink:href="#a"/><use xlink:href="#b" x="3.996" y="28.198"/><use xlink:href="#4" y="2.171"/><use xlink:href="#3" y="4.342"/><use xlink:href="#6" y="8.684"/><use xlink:href="#5" y="10.855"/><use xlink:href="#7" y="13.026"/><use xlink:href="#9" y="17.368"/><use xlink:href="#8" y="19.539"/><use xlink:href="#10" y="21.71"/><use xlink:href="#9" y="26.052"/><text y="29.893" class="e">$</text><text x="2.004" y="29.893" class="s">ec</text><text x="4.008" y="29.893" class="r">ho</text><text x="7.014" y="29.893" class="r">&apos;connect&apos;</text><text x="17.034" y="29.893" class="r">&gt;</text><text x="19.038" y="29.893" class="r">/tmp/pipe</text></svg><svg x="9798"><use xlink:href="#a"/><use xlink:href="#b" x="27.996" y="28.198"/><use xlink:href="#4" y="2.171"/><use xlink:href="#3" y="4.342"/><use xlink:href="#6" y="8.684"/><use xlink:href="#5" y="10.855"/><use xlink:href="#7" y="13.026"/><use xlink:href="#9" y="17.368"/><use xlink:href="#8" y="19.539"/><use xlink:href="#10" y="21.71"/><use xlink:href="#9" y="26.052"/><use xlink:href="#11" y="28.223"/></svg><svg x="10011"><use xlink:href="#a"/><use xlink:href="#b" x="27.996" y="28.198"/><use xlink:href="#4" y="2.171"/><use xlink:href="#3" y="4.342"/><use xlink:href="#6" y="8.684"/><use xlink:href="#5" y="10.855"/><use xlink:href="#7" y="13.026"/><use xlink:href="#9" y="17.368"/><use xlink:href="#8" y="19.539"/><use xlink:href="#10" y="21.71"/><use xlink:href="#9" y="26.052"/><use xlink:href="#11" y="28.223"/></svg><svg x="10224"><use xlink:href="#a"/><use xlink:href="#b" x="27.996" y="28.198"/><use xlink:href="#4" y="2.171"/><use xlink:href="#3" y="4.342"/><use xlink:href="#6" y="8.684"/><use xlink:href="#5" y="10.855"/><use xlink:href="#7" y="13.026"/><use xlink:href="#9" y="17.368"/><use xlink:href="#8" y="19.539"/><use xlink:href="#10" y="21.71"/><use xlink:href="#12" y="26.052"/><use xlink:href="#11" y="28.223"/></svg><svg x="10437"><use xlink:href="#a"/><use xlink:href="#b" x="-.004" y="30.369"/><use xlink:href="#4" y="2.171"/><use xlink:href="#3" y="4.342"/><use xlink:href="#6" y="8.684"/><use xlink:href="#5" y="10.855"/><use xlink:href="#7" y="13.026"/><use xlink:href="#9" y="17.368"/><use xlink:href="#8" y="19.539"/><use xlink:href="#10" y="21.71"/><use xlink:href="#12" y="26.052"/><use xlink:href="#11" y="28.223"/></svg><svg x="10650"><use xlink:href="#a"/><use xlink:href="#b" x="-.004" y="30.369"/><use xlink:href="#4" y="2.171"/><use xlink:href="#3" y="4.342"/><use xlink:href="#6" y="8.684"/><use xlink:href="#5" y="10.855"/><use xlink:href="#7" y="13.026"/><use xlink:href="#9" y="17.368"/><use xlink:href="#8" y="19.539"/><use xlink:href="#10" y="21.71"/><use xlink:href="#12" y="26.052"/><use xlink:href="#11" y="28.223"/></svg><svg x="10863"><use xlink:href="#a"/><use xlink:href="#b" x="1.996" y="34.711"/><use xlink:href="#4" y="2.171"/><use xlink:href="#3" y="4.342"/><use xlink:href="#6" y="8.684"/><use xlink:href="#5" y="10.855"/><use xlink:href="#7" y="13.026"/><use xlink:href="#9" y="17.368"/><use xlink:href="#8" y="19.539"/><use xlink:href="#10" y="21.71"/><use xlink:href="#12" y="26.052"/><use xlink:href="#11" y="28.223"/><use xlink:href="#13" y="32.565"/><use xlink:href="#2" y="34.736"/></svg><svg x="11076"><use xlink:href="#a"/><use xlink:href="#b" x="1.996" y="34.711"/><use xlink:href="#4" y="2.171"/><use xlink:href="#3" y="4.342"/><use xlink:href="#6" y="8.684"/><use xlink:href="#5" y="10.855"/><use xlink:href="#7" y="13.026"/><use xlink:href="#9" y="17.368"/><use xlink:href="#8" y="19.539"/><use xlink:href="#10" y="21.71"/><use xlink:href="#12" y="26.052"/><use xlink:href="#11" y="28.223"/><use xlink:href="#13" y="32.565"/><use xlink:href="#2" y="34.736"/></svg><svg x="11289"><use xlink:href="#a"/><use xlink:href="#b" x="1.996" y="34.711"/><use xlink:href="#4" y="2.171"/><use xlink:href="#3" y="4.342"/><use xlink:href="#6" y="8.684"/><use xlink:href="#5" y="10.855"/><use xlink:href="#7" y="13.026"/><use xlink:href="#9" y="17.368"/><use xlink:href="#8" y="19.539"/><use xlink:href="#10" y="21.71"/><use xlink:href="#12" y="26.052"/><use xlink:href="#11" y="28.223"/><use xlink:href="#13" y="32.565"/><use xlink:href="#2" y="34.736"/></svg><svg x="11502"><use xlink:href="#a"/><use xlink:href="#b" x="1.996" y="34.711"/><use xlink:href="#4" y="2.171"/><use xlink:href="#3" y="4.342"/><use xlink:href="#6" y="8.684"/><use xlink:href="#5" y="10.855"/><use xlink:href="#7" y="13.026"/><use xlink:href="#9" y="17.368"/><use xlink:href="#8" y="19.539"/><use xlink:href="#10" y="21.71"/><use xlink:href="#12" y="26.052"/><use xlink:href="#11" y="28.223"/><use xlink:href="#13" y="32.565"/><use xlink:href="#2" y="34.736"/></svg><svg x="11715"><use xlink:href="#a"/><use xlink:href="#b" x="27.996" y="34.711"/><use xlink:href="#4" y="2.171"/><use xlink:href="#3" y="4.342"/><use xlink:href="#6" y="8.684"/><use xlink:href="#5" y="10.855"/><use xlink:href="#7" y="13.026"/><use xlink:href="#9" y="17.368"/><use xlink:href="#8" y="19.539"/><use xlink:href="#10" y="21.71"/><use xlink:href="#12" y="26.052"/><use xlink:href="#11" y="28.223"/><use xlink:href="#13" y="32.565"/><use xlink:href="#11" y="34.736"/></svg><svg x="11928"><use xlink:href="#a"/><use xlink:href="#b" x="27.996" y="34.711"/><use xlink:href="#4" y="2.171"/><use xlink:href="#3" y="4.342"/><use xlink:href="#6" y="8.684"/><use xlink:href="#5" y="10.855"/><use xlink:href="#7" y="13.026"/><use xlink:href="#9" y="17.368"/><use xlink:href="#8" y="19.539"/><use xlink:href="#10" y="21.71"/><use xlink:href="#12" y="26.052"/><use xlink:href="#11" y="28.223"/><use xlink:href="#13" y="32.565"/><use xlink:href="#11" y="34.736"/></svg><svg x="12141"><use xlink:href="#a"/><use xlink:href="#b" x="27.996" y="34.711"/><use xlink:href="#4" y="2.171"/><use xlink:href="#3" y="4.342"/><use xlink:href="#6" y="8.684"/><use xlink:href="#5" y="10.855"/><use xlink:href="#7" y="13.026"/><use xlink:href="#9" y="17.368"/><use xlink:href="#8" y="19.539"/><use xlink:href="#10" y="21.71"/><use xlink:href="#12" y="26.052"/><use xlink:href="#11" y="28.223"/><use xlink:href="#14" y="32.565"/><use xlink:href="#11" y="34.736"/></svg><svg x="12354"><use xlink:href="#a"/><use xlink:href="#b" x="-.004" y="36.882"/><use xlink:href="#4" y="2.171"/><use xlink:href="#3" y="4.342"/><use xlink:href="#6" y="8.684"/><use xlink:href="#5" y="10.855"/><use xlink:href="#7" y="13.026"/><use xlink:href="#9" y="17.368"/><use xlink:href="#8" y="19.539"/><use xlink:href="#10" y="21.71"/><use xlink:href="#12" y="26.052"/><use xlink:href="#11" y="28.223"/><use xlink:href="#14" y="32.565"/><use xlink:href="#11" y="34.736"/></svg><svg x="12567"><use xlink:href="#a"/><use xlink:href="#b" x="-.004" y="39.053"/><use xlink:href="#4" y="2.171"/><use xlink:href="#3" y="4.342"/><use xlink:href="#6" y="8.684"/><use xlink:href="#5" y="10.855"/><use xlink:href="#7" y="13.026"/><use xlink:href="#9" y="17.368"/><use xlink:href="#8" y="19.539"/><use xlink:href="#10" y="21.71"/><use xlink:href="#12" y="26.052"/><use xlink:href="#11" y="28.223"/><use xlink:href="#14" y="32.565"/><use xlink:href="#11" y="34.736"/><use xlink:href="#15" y="36.907"/></svg><svg x="12780"><use xlink:href="#a"/><use xlink:href="#b" x="1.996" y="43.395"/><use xlink:href="#4" y="2.171"/><use xlink:href="#3" y="4.342"/><use xlink:href="#6" y="8.684"/><use xlink:href="#5" y="10.855"/><use xlink:href="#7" y="13.026"/><use xlink:href="#9" y="17.368"/><use xlink:href="#8" y="19.539"/><use xlink:href="#10" y="21.71"/><use xlink:href="#12" y="26.052"/><use xlink:href="#11" y="28.223"/><use xlink:href="#14" y="32.565"/><use xlink:href="#11" y="34.736"/><use xlink:href="#15" y="36.907"/><use xlink:href="#14" y="41.249"/><use xlink:href="#2" y="43.42"/></svg><svg x="12993"><use xlink:href="#a"/><use xlink:href="#b" x="1.996" y="43.395"/><use xlink:href="#4" y="2.171"/><use xlink:href="#3" y="4.342"/><use xlink:href="#6" y="8.684"/><use xlink:href="#5" y="10.855"/><use xlink:href="#7" y="13.026"/><use xlink:href="#9" y="17.368"/><use xlink:href="#8" y="19.539"/><use xlink:href="#10" y="21.71"/><use xlink:href="#12" y="26.052"/><use xlink:href="#11" y="28.223"/><use xlink:href="#14" y="32.565"/><use xlink:href="#11" y="34.736"/><use xlink:href="#15" y="36.907"/><use xlink:href="#14" y="41.249"/><use xlink:href="#2" y="43.42"/></svg><svg x="13206"><use xlink:href="#a"/><use xlink:href="#b" x="1.996" y="43.395"/><use xlink:href="#4" y="2.171"/><use xlink:href="#3" y="4.342"/><use xlink:href="#6" y="8.684"/><use xlink:href="#5" y="10.855"/><use xlink:href="#7" y="13.026"/><use xlink:href="#9" y="17.368"/><use xlink:href="#8" y="19.539"/><use xlink:href="#10" y="21.71"/><use xlink:href="#12" y="26.052"/><use xlink:href="#11" y="28.223"/><use xlink:href="#14" y="32.565"/><use xlink:href="#11" y="34.736"/><use xlink:href="#15" y="36.907"/><use xlink:href="#14" y="41.249"/><use xlink:href="#2" y="43.42"/></svg><svg x="13419"><use xlink:href="#a"/><use xlink:href="#b" x="1.996" y="43.395"/><use xlink:href="#4" y="2.171"/><use xlink:href="#3" y="4.342"/><use xlink:href="#6" y="8.684"/><use xlink:href="#5" y="10.855"/><use xlink:href="#7" y="13.026"/><use xlink:href="#9" y="17.368"/><use xlink:href="#8" y="19.539"/><use xlink:href="#10" y="21.71"/><use xlink:href="#12" y="26.052"/><use xlink:href="#11" y="28.223"/><use xlink:href="#14" y="32.565"/><use xlink:href="#11" y="34.736"/><use xlink:href="#15" y="36.907"/><use xlink:href="#14" y="41.249"/><use xlink:href="#2" y="43.42"/></svg><svg x="13632"><use xlink:href="#a"/><use xlink:href="#b" x="-.004" y="47.737"/><use xlink:href="#4" y="2.171"/><use xlink:href="#3" y="4.342"/><use xlink:href="#6" y="8.684"/><use xlink:href="#5" y="10.855"/><use xlink:href="#7" y="13.026"/><use xlink:href="#9" y="17.368"/><use xlink:href="#8" y="19.539"/><use xlink:href="#10" y="21.71"/><use xlink:href="#12" y="26.052"/><use xlink:href="#11" y="28.223"/><use xlink:href="#14" y="32.565"/><use xlink:href="#11" y="34.736"/><use xlink:href="#15" y="36.907"/><use xlink:href="#14" y="41.249"/><use xlink:href="#2" y="43.42"/><use xlink:href="#16" y="45.591"/></svg><svg x="13845"><use xlink:href="#a"/><use xlink:href="#b" x="1.996" y="52.079"/><use xlink:href="#4" y="2.171"/><use xlink:href="#3" y="4.342"/><use xlink:href="#6" y="8.684"/><use xlink:href="#5" y="10.855"/><use xlink:href="#7" y="13.026"/><use xlink:href="#9" y="17.368"/><use xlink:href="#8" y="19.539"/><use xlink:href="#10" y="21.71"/><use xlink:href="#12" y="26.052"/><use xlink:href="#11" y="28.223"/><use xlink:href="#14" y="32.565"/><use xlink:href="#11" y="34.736"/><use xlink:href="#15" y="36.907"/><use xlink:href="#14" y="41.249"/><use xlink:href="#2" y="43.42"/><use xlink:href="#16" y="45.591"/><use xlink:href="#14" y="49.933"/><use xlink:href="#2" y="52.104"/></svg><svg x="14058"><use xlink:href="#a"/><use xlink:href="#b" x="-.004" y="54.25"/><use xlink:href="#4" y="2.171"/><use xlink:href="#3" y="4.342"/><use xlink:href="#6" y="8.684"/><use xlink:href="#5" y="10.855"/><use xlink:href="#7" y="13.026"/><use xlink:href="#9" y="17.368"/><use xlink:href="#8" y="19.539"/><use xlink:href="#10" y="21.71"/><use xlink:href="#12" y="26.052"/><use xlink:href="#11" y="28.223"/><use xlink:href="#14" y="32.565"/><use xlink:href="#11" y="34.736"/><use xlink:href="#15" y="36.907"/><use xlink:href="#14" y="41.249"/><use xlink:href="#2" y="43.42"/><use xlink:href="#16" y="45.591"/><use xlink:href="#14" y="49.933"/><use xlink:href="#2" y="52.104"/></svg></svg></g></g></svg></svg>